<svg width="488" height="324" viewBox="0 0 488 324" fill="none" xmlns="http://www.w3.org/2000/svg">
<g filter="url(#filter0_d_108_1491)">
<path d="M103.08 137.381C78.7797 137.492 59 137.848 59 137.848C59 137.848 82.5112 106.943 102.992 118.393C123.473 129.843 147 137.446 147 137.446C147 137.446 127.381 137.27 103.08 137.381Z" fill="#F2F2F2"/>
<path d="M375 146.848C377.761 146.848 380 144.61 380 141.848C380 139.087 377.761 136.848 375 136.848C372.239 136.848 370 139.087 370 141.848C370 144.61 372.239 146.848 375 146.848Z" fill="#FF6584"/>
<path d="M337.99 221.163L375.977 177.542L377.149 178.563L339.162 222.184L337.99 221.163Z" fill="#3F3D56"/>
<path d="M377 185.848C381.418 185.848 385 182.267 385 177.848C385 173.43 381.418 169.848 377 169.848C372.582 169.848 369 173.43 369 177.848C369 182.267 372.582 185.848 377 185.848Z" fill="#3F3D56"/>
<path d="M353.286 204.848C353.286 204.848 368.646 185.276 349 171.848L353.286 204.848Z" fill="#3F3D56"/>
<path d="M98.578 239.253C126.726 291.444 186.467 313.848 186.467 313.848C186.467 313.848 200.57 251.635 172.422 199.444C144.274 147.253 84.5332 124.848 84.5332 124.848C84.5332 124.848 70.4298 187.062 98.578 239.253Z" fill="#3F3D56"/>
<path d="M117.621 222.308C168.431 252.965 188 313.857 188 313.857C188 313.857 125.189 325.045 74.3788 294.388C23.5686 263.732 4 202.84 4 202.84C4 202.84 66.811 191.652 117.621 222.308Z" fill="#111B47"/>
<path d="M319.194 222.578C268.108 252.816 248 313.598 248 313.598C248 313.598 310.719 325.356 361.806 295.118C412.892 264.881 433 204.099 433 204.099C433 204.099 370.281 192.341 319.194 222.578Z" fill="#3F3D56"/>
<path d="M337.739 241.069C309.134 292.984 249.207 314.848 249.207 314.848C249.207 314.848 235.657 252.543 264.261 200.628C292.866 148.713 352.793 126.848 352.793 126.848C352.793 126.848 366.343 189.154 337.739 241.069Z" fill="#111B47"/>
<path d="M233.881 98.8884C227.866 93.4457 227.024 84.2992 231.944 77.8484C231.63 78.143 231.323 78.4489 231.029 78.7741C225.25 85.1677 225.747 95.037 232.138 100.818C238.528 106.599 248.393 106.102 254.171 99.7084C254.465 99.3832 254.739 99.0468 255 98.7046C249.079 104.25 239.898 104.33 233.881 98.8884Z" fill="#2F2E41"/>
<path d="M219.5 109.848C237.449 109.848 252 95.2976 252 77.3484C252 59.3991 237.449 44.8484 219.5 44.8484C201.551 44.8484 187 59.3991 187 77.3484C187 95.2976 201.551 109.848 219.5 109.848Z" fill="#2F2E41"/>
<path d="M210.238 118.879L211.212 116.374L193.476 131.214L172.038 143.163C172.038 143.163 161.123 101.534 160.344 100.763C159.564 99.9923 145.532 70.6981 139.295 84.5743C133.058 98.4505 151.378 106.545 151.378 106.545C151.378 106.545 151.963 157.232 170.673 156.846C189.384 156.461 212.576 139.694 212.966 138.152C213.356 136.61 210.238 118.879 210.238 118.879Z" fill="#FFB8B8"/>
<path d="M215.5 110.848C226.27 110.848 235 102.118 235 91.3484C235 80.5788 226.27 71.8484 215.5 71.8484C204.73 71.8484 196 80.5788 196 91.3484C196 102.118 204.73 110.848 215.5 110.848Z" fill="#FFB8B8"/>
<path d="M218.879 105.598C218.879 105.598 223.943 112.167 222.385 112.939C220.827 113.712 211.868 114.098 206.414 120.667C200.961 127.235 213.036 143.848 213.036 143.848L259 113.326L240.303 107.144C240.303 107.144 227.449 100.189 227.838 92.8484L218.879 105.598Z" fill="#FFB8B8"/>
<path d="M281 315.848H229.37C226.445 294.511 225.093 274.957 225.093 274.957C225.093 274.957 224.339 294.626 222.331 315.848H156C165.403 253.008 209.978 184.864 209.978 184.864C209.978 184.864 210.366 175.581 211.529 174.033C212.693 172.49 204.941 172.103 201.451 160.504C199.323 153.423 201.236 148.789 203.055 146.258C203.679 145.346 204.447 144.54 205.329 143.873C205.329 143.873 206.105 135.757 205.329 134.596C205.23 134.444 205.995 133.91 207.41 133.1C208.589 132.42 210.219 131.547 212.169 130.543C223.338 124.764 244.957 114.539 252.363 111.056C253.987 110.288 254.931 109.848 254.931 109.848L268.107 114.487C278.568 117.965 278.568 140.008 278.568 140.008L277.976 140.908L262.164 164.808L252.992 178.677C255.319 180.22 250.67 189.89 250.67 189.89C250.67 189.89 257.295 199.387 262.682 213.884C265.729 221.952 267.807 230.352 268.872 238.908C269.551 244.453 269.685 250.051 269.27 255.623C267.834 274.251 274.218 296.891 281 315.848Z" fill="#2F2E41"/>
<path d="M267.951 116.283C267.091 115.794 266.063 115.714 265.139 116.063C264.216 116.412 263.492 117.156 263.161 118.095C262.007 121.303 260.838 127.991 261.255 141.896C262.021 167.469 262.404 184.905 262.404 184.905V223.652C262.404 223.652 245.551 260.848 254.744 260.848C263.936 260.848 270.447 231.401 270.447 231.401C270.447 231.401 278.874 186.842 276.192 179.093C276.192 179.093 283.752 125.558 267.951 116.283Z" fill="#FFB8B8"/>
<path d="M213.5 85.8484C222.613 85.8484 230 80.6997 230 74.3484C230 67.9971 222.613 62.8484 213.5 62.8484C204.387 62.8484 197 67.9971 197 74.3484C197 80.6997 204.387 85.8484 213.5 85.8484Z" fill="#2F2E41"/>
<path d="M240 64.8484C248.837 64.8484 256 57.6849 256 48.8484C256 40.0118 248.837 32.8484 240 32.8484C231.163 32.8484 224 40.0118 224 48.8484C224 57.6849 231.163 64.8484 240 64.8484Z" fill="#2F2E41"/>
<path d="M251 60.233C242.682 60.2319 235.752 53.9786 235.06 45.8484C235.023 46.28 235 46.7153 235 47.1561C235 55.8227 242.163 62.8484 251 62.8484C259.837 62.8484 267 55.8227 267 47.1561C267 46.7153 266.977 46.28 266.94 45.8484C266.248 53.9786 259.318 60.2319 251 60.233Z" fill="#2F2E41"/>
<path d="M234.389 87.8668C235.118 87.6928 235.386 86.2018 234.988 84.5366C234.591 82.8714 233.677 81.6625 232.949 81.8365C232.22 82.0105 231.952 83.5015 232.35 85.1667C232.748 86.8319 233.661 88.0408 234.389 87.8668Z" fill="#FFB8B8"/>
<path d="M234 87.8484C234.552 87.8484 235 87.4007 235 86.8484C235 86.2961 234.552 85.8484 234 85.8484C233.448 85.8484 233 86.2961 233 86.8484C233 87.4007 233.448 87.8484 234 87.8484Z" fill="#F2F2F2"/>
<path fill-rule="evenodd" clip-rule="evenodd" d="M44 147.348C44 150.938 46.9101 153.848 50.5 153.848C54.0882 153.844 56.996 150.937 57 147.348C57 143.759 54.0899 140.848 50.5 140.848C46.9101 140.848 44 143.759 44 147.348ZM45.0833 147.348C45.0833 144.357 47.5085 141.932 50.5 141.932C53.4901 141.935 55.9132 144.358 55.9167 147.348C55.9167 150.34 53.4915 152.765 50.5 152.765C47.5085 152.765 45.0833 150.34 45.0833 147.348Z" fill="#3F3D56"/>
<path fill-rule="evenodd" clip-rule="evenodd" d="M308 107.848H322V93.8484H308V107.848ZM320.923 106.771H309.077V94.9253H320.923V106.771Z" fill="#3F3D56"/>
<path d="M440.08 180.381C415.78 180.492 396 180.848 396 180.848C396 180.848 419.511 149.943 439.992 161.393C460.473 172.843 484 180.446 484 180.446C484 180.446 464.381 180.27 440.08 180.381Z" fill="#F2F2F2"/>
<path d="M365.08 75.381C340.78 75.4921 321 75.8484 321 75.8484C321 75.8484 344.511 44.9426 364.992 56.393C385.473 67.8434 409 75.4459 409 75.4459C409 75.4459 389.381 75.2698 365.08 75.381Z" fill="#F2F2F2"/>
<path d="M135.358 88.9813L79.2363 60.0095C75.4039 58.031 73.8946 53.3082 75.8653 49.4607L89.0868 23.6475C89.4748 22.89 90.1559 22.3258 90.9705 22.0874L135.205 9.1388C138.877 8.06376 142.746 10.0608 144.011 13.685L158.545 55.3059C159.279 57.4071 159.12 59.7188 158.106 61.699L145.865 85.5971C144.919 87.4447 143.28 88.8392 141.31 89.4739C139.339 90.1086 137.198 89.9314 135.358 88.9813Z" fill="#F2F2F2"/>
<path opacity="0.1" d="M137.347 79.4244L80.8055 55.1833C78.9836 54.2425 80.6919 55.6886 81.6287 53.859L88.7363 24.8484L158 60.6158L140.489 82.3592C139.553 84.1888 139.169 80.3652 137.347 79.4244Z" fill="black"/>
<path d="M90.1565 62.489C86.136 60.4216 84.5526 55.4863 86.6201 51.4657L105.66 14.4388C107.727 10.4183 112.662 8.83493 116.683 10.9024L153.71 29.942C157.73 32.0095 159.314 36.9448 157.246 40.9653L138.207 77.9922C136.139 82.0128 131.204 83.5961 127.183 81.5287L90.1565 62.489Z" fill="#111B47"/>
<path opacity="0.1" d="M149 56.4339L134.458 84.8484L83 58.2623L97.542 29.8484L116.877 55.6361L149 56.4339Z" fill="black"/>
<path d="M116.252 57.5052L91.2877 24.4506C90.9738 24.0349 90.4677 23.8096 89.948 23.8539C89.4282 23.8982 88.9678 24.2061 88.7293 24.6688L74.5238 52.2244C73.9499 53.3378 73.8428 54.633 74.2262 55.8251C74.6096 57.0172 75.4521 58.0085 76.5683 58.581L138.46 90.3259C139.577 90.8984 140.875 91.0052 142.07 90.6227C143.265 90.2403 144.259 89.3999 144.833 88.2866L158.795 61.2031C159.086 60.6384 159.066 59.9641 158.741 59.418C158.416 58.872 157.833 58.5309 157.196 58.5152L116.252 57.5052Z" fill="#F2F2F2"/>
<path d="M111.412 14.1805L125.839 21.599L124.79 23.6391L110.363 16.2207L111.412 14.1805Z" fill="#F2F2F2"/>
<path d="M106.425 21.0131L149.268 43.0435L148.669 44.2093L105.826 22.1789L106.425 21.0131Z" fill="#F2F2F2"/>
<path d="M104.402 24.9476L147.245 46.9781L146.645 48.1439L103.802 26.1134L104.402 24.9476Z" fill="#F2F2F2"/>
<path d="M102.379 28.8822L145.222 50.9127L144.622 52.0785L101.779 30.048L102.379 28.8822Z" fill="#F2F2F2"/>
<path d="M117.073 12.1302C118.773 8.8244 117.476 4.76905 114.176 3.07228C110.877 1.37551 106.824 2.67984 105.124 5.9856C103.424 9.29135 104.721 13.3467 108.021 15.0435C111.32 16.7402 115.373 15.4359 117.073 12.1302Z" fill="white"/>
<path fill-rule="evenodd" clip-rule="evenodd" d="M103.887 5.19079C105.908 1.26238 110.733 -0.284669 114.664 1.73536C118.583 3.76444 120.128 8.57644 118.121 12.506C116.1 16.4344 111.275 17.9814 107.345 15.9614C103.414 13.9414 101.866 9.1192 103.887 5.19079ZM105.82 6.37005L107.592 11.89L117.541 8.70556L117.044 7.15728L108.646 9.85018L107.369 5.87333L105.82 6.37005Z" fill="#57B894"/>
</g>
<defs>
<filter id="filter0_d_108_1491" x="0" y="0.848389" width="488" height="323" filterUnits="userSpaceOnUse" color-interpolation-filters="sRGB">
<feFlood flood-opacity="0" result="BackgroundImageFix"/>
<feColorMatrix in="SourceAlpha" type="matrix" values="0 0 0 0 0 0 0 0 0 0 0 0 0 0 0 0 0 0 127 0" result="hardAlpha"/>
<feOffset dy="4"/>
<feGaussianBlur stdDeviation="2"/>
<feComposite in2="hardAlpha" operator="out"/>
<feColorMatrix type="matrix" values="0 0 0 0 0 0 0 0 0 0 0 0 0 0 0 0 0 0 0.25 0"/>
<feBlend mode="normal" in2="BackgroundImageFix" result="effect1_dropShadow_108_1491"/>
<feBlend mode="normal" in="SourceGraphic" in2="effect1_dropShadow_108_1491" result="shape"/>
</filter>
</defs>
</svg>
